<?xml version="1.0" encoding="UTF-8" standalone="no"?>
<!DOCTYPE svg PUBLIC "-//W3C//DTD SVG 1.1//EN"
 "http://www.w3.org/Graphics/SVG/1.1/DTD/svg11.dtd">
<!-- Generated by graphviz version 5.0.0 (20220707.1540)
 -->
<!-- Title: dependencies Pages: 1 -->
<svg width="706pt" height="247pt"
 viewBox="0.00 0.00 706.00 246.80" xmlns="http://www.w3.org/2000/svg" xmlns:xlink="http://www.w3.org/1999/xlink">
<g id="graph0" class="graph" transform="scale(1 1) rotate(0) translate(4 242.8)">
<title>dependencies</title>
<polygon fill="white" stroke="transparent" points="-4,4 -4,-242.8 702,-242.8 702,4 -4,4"/>
<text text-anchor="middle" x="349" y="-8.2" font-family="sans-serif" font-size="14.00">dependencies</text>
<g id="clust1" class="cluster">
<title>cluster_AppModule</title>
<polygon fill="none" stroke="black" stroke-dasharray="1,5" points="8,-32.8 8,-230.8 298,-230.8 298,-32.8 8,-32.8"/>
</g>
<g id="clust2" class="cluster">
<title>cluster_AppModule_declarations</title>
<polygon fill="none" stroke="black" points="168,-40.8 168,-92.8 290,-92.8 290,-40.8 168,-40.8"/>
</g>
<g id="clust4" class="cluster">
<title>cluster_AppModule_imports</title>
<polygon fill="none" stroke="black" points="16,-40.8 16,-92.8 160,-92.8 160,-40.8 16,-40.8"/>
</g>
<g id="clust6" class="cluster">
<title>cluster_AppModule_bootstrap</title>
<polygon fill="none" stroke="black" points="96,-170.8 96,-222.8 220,-222.8 220,-170.8 96,-170.8"/>
</g>
<g id="clust14" class="cluster">
<title>cluster_ChatAppModule</title>
<polygon fill="none" stroke="black" stroke-dasharray="1,5" points="306,-32.8 306,-230.8 474,-230.8 474,-32.8 306,-32.8"/>
</g>
<g id="clust15" class="cluster">
<title>cluster_ChatAppModule_declarations</title>
<polygon fill="none" stroke="black" points="316,-40.8 316,-92.8 464,-92.8 464,-40.8 316,-40.8"/>
</g>
<g id="clust19" class="cluster">
<title>cluster_ChatAppModule_bootstrap</title>
<polygon fill="none" stroke="black" points="314,-170.8 314,-222.8 466,-222.8 466,-170.8 314,-170.8"/>
</g>
<g id="clust27" class="cluster">
<title>cluster_NotificationAppModule</title>
<polygon fill="none" stroke="black" stroke-dasharray="1,5" points="482,-32.8 482,-230.8 690,-230.8 690,-32.8 482,-32.8"/>
</g>
<g id="clust28" class="cluster">
<title>cluster_NotificationAppModule_declarations</title>
<polygon fill="none" stroke="black" points="491,-40.8 491,-92.8 681,-92.8 681,-40.8 491,-40.8"/>
</g>
<g id="clust32" class="cluster">
<title>cluster_NotificationAppModule_bootstrap</title>
<polygon fill="none" stroke="black" points="490,-170.8 490,-222.8 682,-222.8 682,-170.8 490,-170.8"/>
</g>
<!-- AppComponent -->
<g id="node1" class="node">
<title>AppComponent</title>
<polygon fill="#ffffb3" stroke="black" points="281.94,-84.8 176.06,-84.8 176.06,-48.8 281.94,-48.8 281.94,-84.8"/>
<text text-anchor="middle" x="229" y="-62.6" font-family="Times,serif" font-size="14.00">AppComponent</text>
</g>
<!-- AppModule -->
<g id="node2" class="node">
<title>AppModule</title>
<polygon fill="#8dd3c7" stroke="black" points="199.66,-149.8 196.66,-153.8 175.66,-153.8 172.66,-149.8 116.34,-149.8 116.34,-113.8 199.66,-113.8 199.66,-149.8"/>
<text text-anchor="middle" x="158" y="-127.6" font-family="Times,serif" font-size="14.00">AppModule</text>
</g>
<!-- AppComponent&#45;&gt;AppModule -->
<g id="edge1" class="edge">
<title>AppComponent&#45;&gt;AppModule</title>
<path fill="none" stroke="black" d="M188.06,-84.91C188.06,-84.91 188.06,-103.79 188.06,-103.79"/>
<polygon fill="black" stroke="black" points="184.56,-103.79 188.06,-113.79 191.56,-103.79 184.56,-103.79"/>
</g>
<!-- AppComponent  -->
<g id="node4" class="node">
<title>AppComponent </title>
<polygon fill="#80b1d3" stroke="black" points="212.44,-214.8 103.56,-214.8 103.56,-178.8 212.44,-178.8 212.44,-214.8"/>
<text text-anchor="middle" x="158" y="-192.6" font-family="Times,serif" font-size="14.00">AppComponent </text>
</g>
<!-- AppModule&#45;&gt;AppComponent  -->
<g id="edge3" class="edge">
<title>AppModule&#45;&gt;AppComponent </title>
<path fill="none" stroke="black" stroke-dasharray="1,5" d="M158,-149.91C158,-149.91 158,-168.79 158,-168.79"/>
<polygon fill="black" stroke="black" points="154.5,-168.79 158,-178.79 161.5,-168.79 154.5,-168.79"/>
</g>
<!-- AppRoutingModule -->
<g id="node3" class="node">
<title>AppRoutingModule</title>
<polygon fill="#8dd3c7" stroke="black" points="152.28,-84.8 149.28,-88.8 128.28,-88.8 125.28,-84.8 23.72,-84.8 23.72,-48.8 152.28,-48.8 152.28,-84.8"/>
<text text-anchor="middle" x="88" y="-62.6" font-family="Times,serif" font-size="14.00">AppRoutingModule</text>
</g>
<!-- AppRoutingModule&#45;&gt;AppModule -->
<g id="edge2" class="edge">
<title>AppRoutingModule&#45;&gt;AppModule</title>
<path fill="none" stroke="black" d="M134.28,-84.91C134.28,-84.91 134.28,-103.79 134.28,-103.79"/>
<polygon fill="black" stroke="black" points="130.78,-103.79 134.28,-113.79 137.78,-103.79 130.78,-103.79"/>
</g>
<!-- ChatAppComponent -->
<g id="node5" class="node">
<title>ChatAppComponent</title>
<polygon fill="#ffffb3" stroke="black" points="455.88,-84.8 324.12,-84.8 324.12,-48.8 455.88,-48.8 455.88,-84.8"/>
<text text-anchor="middle" x="390" y="-62.6" font-family="Times,serif" font-size="14.00">ChatAppComponent</text>
</g>
<!-- ChatAppModule -->
<g id="node6" class="node">
<title>ChatAppModule</title>
<polygon fill="#8dd3c7" stroke="black" points="445.1,-149.8 442.1,-153.8 421.1,-153.8 418.1,-149.8 334.9,-149.8 334.9,-113.8 445.1,-113.8 445.1,-149.8"/>
<text text-anchor="middle" x="390" y="-127.6" font-family="Times,serif" font-size="14.00">ChatAppModule</text>
</g>
<!-- ChatAppComponent&#45;&gt;ChatAppModule -->
<g id="edge4" class="edge">
<title>ChatAppComponent&#45;&gt;ChatAppModule</title>
<path fill="none" stroke="black" d="M390,-84.91C390,-84.91 390,-103.79 390,-103.79"/>
<polygon fill="black" stroke="black" points="386.5,-103.79 390,-113.79 393.5,-103.79 386.5,-103.79"/>
</g>
<!-- ChatAppComponent  -->
<g id="node7" class="node">
<title>ChatAppComponent </title>
<polygon fill="#80b1d3" stroke="black" points="457.88,-214.8 322.12,-214.8 322.12,-178.8 457.88,-178.8 457.88,-214.8"/>
<text text-anchor="middle" x="390" y="-192.6" font-family="Times,serif" font-size="14.00">ChatAppComponent </text>
</g>
<!-- ChatAppModule&#45;&gt;ChatAppComponent  -->
<g id="edge5" class="edge">
<title>ChatAppModule&#45;&gt;ChatAppComponent </title>
<path fill="none" stroke="black" stroke-dasharray="1,5" d="M390,-149.91C390,-149.91 390,-168.79 390,-168.79"/>
<polygon fill="black" stroke="black" points="386.5,-168.79 390,-178.79 393.5,-168.79 386.5,-168.79"/>
</g>
<!-- NotificationAppComponent -->
<g id="node8" class="node">
<title>NotificationAppComponent</title>
<polygon fill="#ffffb3" stroke="black" points="672.59,-84.8 499.41,-84.8 499.41,-48.8 672.59,-48.8 672.59,-84.8"/>
<text text-anchor="middle" x="586" y="-62.6" font-family="Times,serif" font-size="14.00">NotificationAppComponent</text>
</g>
<!-- NotificationAppModule -->
<g id="node9" class="node">
<title>NotificationAppModule</title>
<polygon fill="#8dd3c7" stroke="black" points="661.81,-149.8 658.81,-153.8 637.81,-153.8 634.81,-149.8 510.19,-149.8 510.19,-113.8 661.81,-113.8 661.81,-149.8"/>
<text text-anchor="middle" x="586" y="-127.6" font-family="Times,serif" font-size="14.00">NotificationAppModule</text>
</g>
<!-- NotificationAppComponent&#45;&gt;NotificationAppModule -->
<g id="edge6" class="edge">
<title>NotificationAppComponent&#45;&gt;NotificationAppModule</title>
<path fill="none" stroke="black" d="M586,-84.91C586,-84.91 586,-103.79 586,-103.79"/>
<polygon fill="black" stroke="black" points="582.5,-103.79 586,-113.79 589.5,-103.79 582.5,-103.79"/>
</g>
<!-- NotificationAppComponent  -->
<g id="node10" class="node">
<title>NotificationAppComponent </title>
<polygon fill="#80b1d3" stroke="black" points="674.09,-214.8 497.91,-214.8 497.91,-178.8 674.09,-178.8 674.09,-214.8"/>
<text text-anchor="middle" x="586" y="-192.6" font-family="Times,serif" font-size="14.00">NotificationAppComponent </text>
</g>
<!-- NotificationAppModule&#45;&gt;NotificationAppComponent  -->
<g id="edge7" class="edge">
<title>NotificationAppModule&#45;&gt;NotificationAppComponent </title>
<path fill="none" stroke="black" stroke-dasharray="1,5" d="M586,-149.91C586,-149.91 586,-168.79 586,-168.79"/>
<polygon fill="black" stroke="black" points="582.5,-168.79 586,-178.79 589.5,-168.79 582.5,-168.79"/>
</g>
</g>
</svg>
